<?xml version="1.0" encoding="UTF-8"?>
<svg version="1.1" xmlns="http://www.w3.org/2000/svg" width="500" height="500">
<path d="M0 0 C165 0 330 0 500 0 C500 165 500 330 500 500 C335 500 170 500 0 500 C0 335 0 170 0 0 Z " fill="#FEFDF4" transform="translate(0,0)"/>
<path d="M0 0 C2.75179406 2.16842907 5.32239738 4.42082566 7.86328125 6.83203125 C8.64058594 7.56808594 9.41789063 8.30414063 10.21875 9.0625 C26.33451104 25.62206858 32.34909968 46.98776033 32.078125 69.5546875 C31.6844548 83.34781541 26.64010334 95.9725926 19.86328125 107.83203125 C11.94328125 107.83203125 4.02328125 107.83203125 -4.13671875 107.83203125 C-1.13671875 97.83203125 -1.13671875 97.83203125 0.03125 94.41015625 C2.857495 85.18425302 3.23177502 76.33862069 3.23828125 66.70703125 C3.23981201 65.45696289 3.24134277 64.20689453 3.24291992 62.91894531 C3.00373728 42.56036 -0.90788822 22.23466872 -15.13671875 6.83203125 C-25.09263029 -2.54914424 -36.06274265 -5.57168169 -49.5 -5.4453125 C-60.41288827 -4.6130729 -69.76946446 1.08092748 -77.26171875 8.83203125 C-90.97121152 25.16325968 -93.37493156 45.81555383 -93.44921875 66.33203125 C-93.45216949 67.04690704 -93.45512024 67.76178284 -93.4581604 68.49832153 C-93.46817251 79.14268866 -92.76077779 88.73557245 -89.13671875 98.83203125 C-88.14671875 101.80203125 -87.15671875 104.77203125 -86.13671875 107.83203125 C-94.05671875 107.83203125 -101.97671875 107.83203125 -110.13671875 107.83203125 C-121.2770924 87.77935867 -126.24761486 67.25197898 -120.38671875 44.45703125 C-119.67672353 42.2355131 -118.93086878 40.02487457 -118.13671875 37.83203125 C-117.83636719 36.92710937 -117.53601563 36.0221875 -117.2265625 35.08984375 C-113.2660274 24.08264231 -106.26281557 15.1001927 -98.13671875 6.83203125 C-97.523125 6.20554688 -96.90953125 5.5790625 -96.27734375 4.93359375 C-69.68924999 -20.17738369 -29.21078537 -20.18927258 0 0 Z " fill="#1D3430" transform="translate(303.13671875,176.16796875)"/>
<path d="M0 0 C1.02996094 -0.01224609 2.05992188 -0.02449219 3.12109375 -0.03710938 C13.77339289 -0.05720805 22.96118449 1.63910552 32.75 5.8125 C39.312923 8.82692038 39.312923 8.82692038 46.375 9.1875 C49.6670056 6.64795282 51.07215366 4.09603901 52.375 0.1875 C53.695 0.1875 55.015 0.1875 56.375 0.1875 C59.95665209 35.87066155 59.95665209 35.87066155 59.375 51.1875 C58.385 51.1875 57.395 51.1875 56.375 51.1875 C56.09527344 50.22070312 55.81554687 49.25390625 55.52734375 48.2578125 C51.22987986 34.04213872 44.17504843 22.76227766 30.75 15.4375 C15.35227086 8.42773133 -0.25292188 6.69399012 -16.43359375 11.921875 C-21.23580553 13.82630171 -25.42191877 16.19830505 -29.625 19.1875 C-30.54152344 19.79464844 -30.54152344 19.79464844 -31.4765625 20.4140625 C-43.80795851 29.59222482 -49.52285431 46.46616451 -51.9375 60.9375 C-54.37225855 83.34673405 -52.98948215 101.58563926 -43.625 122.1875 C-52.205 122.1875 -60.785 122.1875 -69.625 122.1875 C-80.36686121 102.85214982 -85.2696774 82.60984117 -79.38891602 60.91357422 C-75.992269 49.24614206 -70.90550365 39.81450744 -63.625 30.1875 C-63.07070313 29.44628906 -62.51640625 28.70507812 -61.9453125 27.94140625 C-47.05070549 9.52692943 -23.18500111 0.01418911 0 0 Z " fill="#1D3430" transform="translate(104.625,161.8125)"/>
<path d="M0 0 C22.77 0 45.54 0 69 0 C69 1.32 69 2.64 69 4 C67.0509375 4.12375 67.0509375 4.12375 65.0625 4.25 C60.09292323 4.83881241 54.91801428 5.7349881 51 9 C48.1251561 15.23689353 47.55706038 20.46060535 47.56762695 27.27148438 C47.5574353 28.26751678 47.54724365 29.26354919 47.53674316 30.2897644 C47.5067268 33.55781767 47.49736446 36.82557726 47.48828125 40.09375 C47.47142618 42.36919114 47.45327482 44.64462301 47.43388367 46.92004395 C47.38646776 52.89088038 47.35660386 58.86167924 47.33044434 64.8326416 C47.30059647 70.93277403 47.25408062 77.03277712 47.20898438 83.1328125 C47.12304674 95.08848874 47.05720048 107.0441517 47 119 C39.08 119 31.16 119 23 119 C22.97812622 114.32142822 22.97812622 114.32142822 22.95581055 109.54833984 C22.90547147 99.24250152 22.83887745 88.9368144 22.76428509 78.6311245 C22.71955951 72.38283961 22.68030798 66.13462025 22.65356445 59.88623047 C22.62755365 53.85608179 22.58716643 47.82618501 22.53681374 41.79619217 C22.52013009 39.49574543 22.50862516 37.1952551 22.50238609 34.89475632 C22.49276159 31.67224475 22.46472091 28.45037984 22.43237305 25.22802734 C22.43452568 23.80166962 22.43452568 23.80166962 22.4367218 22.34649658 C22.36316299 17.16423363 21.93217187 13.46665391 19 9 C13.34531693 5.27444166 6.6206467 4.4271385 0 4 C0 2.68 0 1.36 0 0 Z " fill="#1D3430" transform="translate(352,165)"/>
<path d="M0 0 C3.17568542 1.65233922 5.37696485 3.75392971 7 7 C7.51512617 11.09157355 7.94367269 15.23589546 5.953125 18.95703125 C4.18601378 21.09315687 2.49101659 22.75449171 0 24 C-4.52589985 24.41654299 -8.66641891 24.51073318 -12.9375 22.875 C-16.59374137 19.55114421 -17.83009043 16.35927659 -18.4375 11.5 C-17.91481184 7.3184947 -16.64184935 5.24570063 -14 2 C-9.5424425 -0.971705 -5.22586818 -0.75294249 0 0 Z " fill="#F9F8EF" transform="translate(244,291)"/>
<path d="M0 0 C12 0 12 0 16 3 C16.35996895 6.45570193 16.09991843 8.70024471 15 12 C15.99 13.485 15.99 13.485 17 15 C17.4375 17.4375 17.4375 17.4375 17 20 C15.25 22.3125 15.25 22.3125 12 24 C8.04 24 4.08 24 0 24 C0 16.08 0 8.16 0 0 Z " fill="#223438" transform="translate(145,291)"/>
<path d="M0 0 C12.34313078 -0.49372523 12.34313078 -0.49372523 15.390625 1.796875 C17.7309759 5.00065634 17.55235041 7.13354713 17 11 C15 13.4375 15 13.4375 13 15 C14.65 17.97 16.3 20.94 18 24 C16.68 24 15.36 24 14 24 C10 17.25 10 17.25 10 15 C8.02 15 6.04 15 4 15 C4 17.97 4 20.94 4 24 C2.68 24 1.36 24 0 24 C0 16.08 0 8.16 0 0 Z " fill="#3F4F51" transform="translate(359,291)"/>
<path d="M0 0 C12.34313078 -0.49372523 12.34313078 -0.49372523 15.390625 1.796875 C17.7309759 5.00065634 17.55235041 7.13354713 17 11 C15 13.4375 15 13.4375 13 15 C14.65 17.97 16.3 20.94 18 24 C16.68 24 15.36 24 14 24 C10 17.25 10 17.25 10 15 C8.02 15 6.04 15 4 15 C4 17.97 4 20.94 4 24 C2.68 24 1.36 24 0 24 C0 16.08 0 8.16 0 0 Z " fill="#3F4F51" transform="translate(191,291)"/>
<path d="M0 0 C2.296875 0.0625 2.296875 0.0625 5 1 C6.35141368 3.39188263 7.3180047 5.45455048 8.25 8 C9.62988476 12.31803951 9.62988476 12.31803951 12 16 C14.31 10.72 16.62 5.44 19 0 C20.32 0 21.64 0 23 0 C24.77967263 8.04030671 26.43630637 15.71017896 26 24 C25.01 24 24.02 24 23 24 C21.515 15.585 21.515 15.585 20 7 C17.69 12.28 15.38 17.56 13 23 C10 22 10 22 8.39453125 18.83984375 C7.85609726 17.54361378 7.32916571 16.24255932 6.8125 14.9375 C6.53986328 14.27427734 6.26722656 13.61105469 5.98632812 12.92773438 C5.3143914 11.28915183 4.65590372 9.64506597 4 8 C2.68390994 11.77131688 1.61741431 15.45081006 0.875 19.375 C0.70742187 20.24898438 0.53984375 21.12296875 0.3671875 22.0234375 C0.18542969 23.00183594 0.18542969 23.00183594 0 24 C-0.99 24 -1.98 24 -3 24 C-2.45423097 15.89963866 -1.45852964 7.98651182 0 0 Z " fill="#334446" transform="translate(111,291)"/>
<path d="M0 0 C1.91503906 0.13061523 1.91503906 0.13061523 4 1 C5.28027344 3.13305664 5.28027344 3.13305664 6.359375 5.91015625 C6.75253906 6.89951172 7.14570312 7.88886719 7.55078125 8.90820312 C7.94652344 9.94912109 8.34226562 10.99003906 8.75 12.0625 C9.16121094 13.10728516 9.57242188 14.15207031 9.99609375 15.22851562 C11.01136952 17.81392717 12.01187523 20.40411653 13 23 C11.68 23.33 10.36 23.66 9 24 C8.34 22.35 7.68 20.7 7 19 C3.04 18.67 -0.92 18.34 -5 18 C-5.33 19.98 -5.66 21.96 -6 24 C-7.32 23.67 -8.64 23.34 -10 23 C-8.52491251 19.35250285 -7.04425171 15.70729442 -5.5625 12.0625 C-5.14162109 11.02158203 -4.72074219 9.98066406 -4.28710938 8.90820312 C-3.88427734 7.91884766 -3.48144531 6.92949219 -3.06640625 5.91015625 C-2.69459229 4.99371338 -2.32277832 4.07727051 -1.93969727 3.13305664 C-1 1 -1 1 0 0 Z " fill="#334346" transform="translate(90,291)"/>
<path d="M0 0 C1.91503906 0.14868164 1.91503906 0.14868164 4 1 C5.28027344 3.00952148 5.28027344 3.00952148 6.359375 5.62109375 C6.75253906 6.55630859 7.14570313 7.49152344 7.55078125 8.45507812 C7.94652344 9.43927734 8.34226562 10.42347656 8.75 11.4375 C9.16121094 12.41783203 9.57242187 13.39816406 9.99609375 14.40820312 C13 21.65849512 13 21.65849512 13 24 C11.68 23.67 10.36 23.34 9 23 C8.505 20.525 8.505 20.525 8 18 C4.04 18.33 0.08 18.66 -4 19 C-4.99 21.475 -4.99 21.475 -6 24 C-6.99 24 -7.98 24 -9 24 C-8.38301463 18.62708572 -6.59292437 14.11721945 -4.5 9.1875 C-4.01853516 8.02444336 -4.01853516 8.02444336 -3.52734375 6.83789062 C-1.14773261 1.14773261 -1.14773261 1.14773261 0 0 Z " fill="#304144" transform="translate(340,291)"/>
<path d="M0 0 C2.96912882 1.38980498 4.69657028 2.69657028 7 5 C7 5.99 7 6.98 7 8 C6.01 8 5.02 8 4 8 C3.443125 7.34 2.88625 6.68 2.3125 6 C-0.60661203 3.47536257 -2.33248044 3.40044659 -6.09375 3.625 C-8.19912072 3.92719931 -8.19912072 3.92719931 -10.5 5.5 C-12.62153384 9.03588973 -12.791013 11.97901723 -12 16 C-10.66666667 18.66666667 -10.66666667 18.66666667 -8 20 C-3.7136488 20.67270703 -0.69330732 20.46220488 3 18 C3.33 17.01 3.66 16.02 4 15 C1.03 15 -1.94 15 -5 15 C-5 14.01 -5 13.02 -5 12 C-0.71 12 3.58 12 8 12 C7.05034634 17.69792198 6.70282493 19.07276144 3 23 C-0.72712158 24.86356079 -4.9420732 24.56549975 -9 24 C-12.62531608 22.1258346 -14.69121639 19.92635083 -16 16 C-16.5074473 12.19414525 -16.86096143 8.55165811 -14.953125 5.11328125 C-10.47959102 -0.32074679 -6.69625987 -0.67194303 0 0 Z " fill="#2C3D40" transform="translate(468,291)"/>
<path d="M0 0 C4.88951493 1.22237873 6.31285197 3.50308106 9.125 7.375 C9.78822266 8.26058594 9.78822266 8.26058594 10.46484375 9.1640625 C12.38059572 11.73383251 14.22188032 14.33282049 16 17 C16.33 11.39 16.66 5.78 17 0 C17.99 0 18.98 0 20 0 C20 7.92 20 15.84 20 24 C15.74582711 22.93645678 15.37596612 22.70377932 12.984375 19.40234375 C12.19160156 18.32436523 12.19160156 18.32436523 11.3828125 17.22460938 C10.84398437 16.46986328 10.30515625 15.71511719 9.75 14.9375 C9.19570313 14.17888672 8.64140625 13.42027344 8.0703125 12.63867188 C6.70407514 10.76598445 5.35077833 8.88386852 4 7 C3.67 12.61 3.34 18.22 3 24 C2.01 24 1.02 24 0 24 C0 16.08 0 8.16 0 0 Z " fill="#344447" transform="translate(384,291)"/>
<path d="M0 0 C3.17568542 1.65233922 5.37696485 3.75392971 7 7 C7.51512617 11.09157355 7.94367269 15.23589546 5.953125 18.95703125 C4.18601378 21.09315687 2.49101659 22.75449171 0 24 C-4.52589985 24.41654299 -8.66641891 24.51073318 -12.9375 22.875 C-16.59374137 19.55114421 -17.83009043 16.35927659 -18.4375 11.5 C-17.91481184 7.3184947 -16.64184935 5.24570063 -14 2 C-9.5424425 -0.971705 -5.22586818 -0.75294249 0 0 Z M-13.0625 5.625 C-15.19068884 9.33216766 -15.86817902 10.83274071 -15 15 C-12.98654855 18.55054808 -12.98654855 18.55054808 -10 21 C-6.82625544 21.80921878 -4.18121489 21.75359702 -1 21 C2.05067422 19.00772296 3.59426669 17.66317126 4.47265625 14.0625 C4.7595293 10.17868019 4.20766662 8.32154831 2.0625 5 C-1.49540974 2.67646711 -3.65265527 2.20455832 -7.83984375 2.44921875 C-10.30095619 3.07673566 -11.34709173 3.77275004 -13.0625 5.625 Z " fill="#2F4043" transform="translate(244,291)"/>
<path d="M0 0 C4.1746088 1.0436522 4.51796118 1.15044501 6.796875 4.37890625 C7.28027344 5.05244141 7.76367188 5.72597656 8.26171875 6.41992188 C8.75285156 7.12697266 9.24398438 7.83402344 9.75 8.5625 C10.25660156 9.27341797 10.76320313 9.98433594 11.28515625 10.71679688 C12.53312303 12.47101432 13.76785497 14.23463359 15 16 C15.33 10.72 15.66 5.44 16 0 C16.99 0 17.98 0 19 0 C19 7.92 19 15.84 19 24 C14.72674814 22.93168704 14.44629508 22.79380327 12.203125 19.40234375 C11.71972656 18.68369141 11.23632812 17.96503906 10.73828125 17.22460938 C10.24714844 16.46986328 9.75601562 15.71511719 9.25 14.9375 C8.74339844 14.17888672 8.23679687 13.42027344 7.71484375 12.63867188 C6.46632758 10.76589761 5.2318031 8.88380922 4 7 C3.67 12.61 3.34 18.22 3 24 C2.01 24 1.02 24 0 24 C0 16.08 0 8.16 0 0 Z " fill="#27393C" transform="translate(425,291)"/>
<path d="M0 0 C2.78896881 1.60636719 5.01400268 3.46160608 7 6 C7 6.66 7 7.32 7 8 C4.58272219 7.58322796 3.31078732 7.34561693 1.640625 5.48828125 C-0.98323177 3.10806833 -3.43009941 3.46390421 -6.8359375 3.5859375 C-9.26227236 3.86985744 -9.26227236 3.86985744 -11.5625 6.125 C-13.25419769 9.50839538 -13.62195931 11.26824414 -13 15 C-11.65884601 18.00979883 -11.65884601 18.00979883 -9 20 C-4.90261051 20.65478852 -4.90261051 20.65478852 -1 20 C1.81331378 17.60416349 1.81331378 17.60416349 4 15 C4.99 15 5.98 15 7 15 C6.76346394 18.19323679 5.72817004 19.30667995 3.5625 21.75 C0.01533362 24.51747522 -3.2651888 24.65979805 -7.66015625 24.421875 C-11.06384926 23.80818745 -12.75261996 22.59853317 -15 20 C-17.25059535 16.03466534 -17.47404865 12.50346218 -17 8 C-12.87748926 0.46575624 -8.2996379 -1.47939165 0 0 Z " fill="#334346" transform="translate(41,291)"/>
<path d="M0 0 C0.99 0 1.98 0 3 0 C3 3.3 3 6.6 3 10 C7.29 10 11.58 10 16 10 C16 6.7 16 3.4 16 0 C16.99 0 17.98 0 19 0 C19 7.92 19 15.84 19 24 C18.01 24 17.02 24 16 24 C16 20.37 16 16.74 16 13 C11.71 13 7.42 13 3 13 C3 16.63 3 20.26 3 24 C2.01 24 1.02 24 0 24 C0 16.08 0 8.16 0 0 Z " fill="#2B3C3F" transform="translate(55,291)"/>
<path d="M0 0 C4.62 0 9.24 0 14 0 C14 0.99 14 1.98 14 3 C10.37 3 6.74 3 3 3 C3 5.31 3 7.62 3 10 C6.3 10 9.6 10 13 10 C13 10.99 13 11.98 13 13 C9.7 13 6.4 13 3 13 C3 15.64 3 18.28 3 21 C6.63 21 10.26 21 14 21 C14 21.99 14 22.98 14 24 C9.38 24 4.76 24 0 24 C0 16.08 0 8.16 0 0 Z " fill="#2D3E41" transform="translate(311,291)"/>
<path d="M0 0 C4.62 0 9.24 0 14 0 C14 0.99 14 1.98 14 3 C10.37 3 6.74 3 3 3 C3 5.31 3 7.62 3 10 C6.3 10 9.6 10 13 10 C13 10.99 13 11.98 13 13 C9.7 13 6.4 13 3 13 C3 15.64 3 18.28 3 21 C6.63 21 10.26 21 14 21 C14 21.99 14 22.98 14 24 C9.38 24 4.76 24 0 24 C0 16.08 0 8.16 0 0 Z " fill="#2C3D40" transform="translate(170,291)"/>
<path d="M0 0 C4.29 0 8.58 0 13 0 C13 0.99 13 1.98 13 3 C9.7 3 6.4 3 3 3 C3 5.64 3 8.28 3 11 C5.97 11 8.94 11 12 11 C12 11.66 12 12.32 12 13 C9.03 13 6.06 13 3 13 C3 16.63 3 20.26 3 24 C2.01 24 1.02 24 0 24 C0 16.08 0 8.16 0 0 Z " fill="#26383B" transform="translate(259,291)"/>
<path d="M0 0 C0.99 0 1.98 0 3 0 C3 6.93 3 13.86 3 21 C6.63 21 10.26 21 14 21 C14 21.99 14 22.98 14 24 C9.38 24 4.76 24 0 24 C0 16.08 0 8.16 0 0 Z " fill="#233538" transform="translate(291,291)"/>
<path d="M0 0 C1.45792884 -0.05399736 2.91642712 -0.09279177 4.375 -0.125 C5.18710938 -0.14820313 5.99921875 -0.17140625 6.8359375 -0.1953125 C9 0 9 0 11 2 C10.44444444 6.55555556 10.44444444 6.55555556 9 8 C7.48071962 8.07179964 5.95832518 8.08392007 4.4375 8.0625 C3.61121094 8.05347656 2.78492188 8.04445313 1.93359375 8.03515625 C1.29550781 8.02355469 0.65742188 8.01195312 0 8 C0 5.36 0 2.72 0 0 Z " fill="#F6F5ED" transform="translate(148,304)"/>
<path d="M0 0 C6.0546875 -0.1953125 6.0546875 -0.1953125 8 0 C10 2 10 2 10.1875 4.5625 C10 7 10 7 9 8 C7.48071962 8.07179964 5.95832518 8.08392007 4.4375 8.0625 C3.61121094 8.05347656 2.78492188 8.04445313 1.93359375 8.03515625 C1.29550781 8.02355469 0.65742188 8.01195312 0 8 C0 5.36 0 2.72 0 0 Z " fill="#FDFCF3" transform="translate(363,294)"/>
<path d="M0 0 C6.0546875 -0.1953125 6.0546875 -0.1953125 8 0 C10 2 10 2 10.1875 4.5625 C10 7 10 7 9 8 C7.48071962 8.07179964 5.95832518 8.08392007 4.4375 8.0625 C3.61121094 8.05347656 2.78492188 8.04445313 1.93359375 8.03515625 C1.29550781 8.02355469 0.65742188 8.01195312 0 8 C0 5.36 0 2.72 0 0 Z " fill="#FDFCF3" transform="translate(195,294)"/>
<path d="M0 0 C0.99 0 1.98 0 3 0 C3 7.92 3 15.84 3 24 C2.01 24 1.02 24 0 24 C0 16.08 0 8.16 0 0 Z " fill="#3C4C4E" transform="translate(413,291)"/>
<path d="M0 0 C1.47906892 -0.02689216 2.95827483 -0.04634621 4.4375 -0.0625 C5.26121094 -0.07410156 6.08492187 -0.08570313 6.93359375 -0.09765625 C9 0 9 0 10 1 C10.04063832 2.66617115 10.042721 4.33388095 10 6 C6.78548731 7.60725635 3.56387464 7.05748185 0 7 C0 4.69 0 2.38 0 0 Z " fill="#F9F8F0" transform="translate(148,294)"/>
<path d="M0 0 C2.40921705 2.40921705 3.53812156 4.94334509 5 8 C6.32 7.01 7.64 6.02 9 5 C8.39009109 8.55780196 7.4216319 11.6828589 6 15 C3 14 3 14 1.796875 12.109375 C-1.05556985 5.68073064 -1.05556985 5.68073064 -0.75 1.9375 C-0.5025 1.298125 -0.255 0.65875 0 0 Z " fill="#2C3D40" transform="translate(118,299)"/>
<path d="M0 0 C6.81538887 -0.71740936 6.81538887 -0.71740936 10.08984375 1.265625 C11.87321933 2.76818275 13.51119771 4.20413224 15 6 C15 6.66 15 7.32 15 8 C11.31213873 7.36416185 11.31213873 7.36416185 9.6875 5.46875 C7.36021474 3.44314986 5.84601076 3.69431127 2.8125 3.8125 C1.91144531 3.83957031 1.01039062 3.86664063 0.08203125 3.89453125 C-0.60503906 3.92933594 -1.29210937 3.96414063 -2 4 C-1.34 2.68 -0.68 1.36 0 0 Z " fill="#2E3F42" transform="translate(33,291)"/>
<path d="M0 0 C2 1 2 1 2.8515625 3.06640625 C3.10679688 3.89011719 3.36203125 4.71382813 3.625 5.5625 C3.88539062 6.38878906 4.14578125 7.21507812 4.4140625 8.06640625 C4.60742188 8.70449219 4.80078125 9.34257812 5 10 C2.36 10 -0.28 10 -3 10 C-2.49287967 6.28111761 -1.88391785 3.26545761 0 0 Z " fill="#F0F1E8" transform="translate(91,296)"/>
<path d="M0 0 C3.44216672 2.6598561 3.99504674 5.90288286 5 10 C2.36 10 -0.28 10 -3 10 C-2.49287967 6.28111761 -1.88391785 3.26545761 0 0 Z " fill="#F2F2EA" transform="translate(341,296)"/>
<path d="M0 0 C1.32 0 2.64 0 4 0 C3.125 5.75 3.125 5.75 2 8 C0.35 8 -1.3 8 -3 8 C-1.125 2.25 -1.125 2.25 0 0 Z " fill="#283D39" transform="translate(482,276)"/>
<path d="M0 0 C-0.17298401 2.33528415 -0.70225369 3.69177582 -2.33203125 5.37890625 C-6.57211538 9 -6.57211538 9 -9 9 C-8.44706396 4.02357564 -5.06735917 0 0 0 Z " fill="#3B4B4D" transform="translate(48,306)"/>
<path d="M0 0 C1.28222189 3.03070628 0.98589446 4.03596914 -0.25 7.1875 C-2 10 -2 10 -5 11 C-4.39102647 7.44765442 -3.54266151 4.2668126 -2 1 C-1.34 0.67 -0.68 0.34 0 0 Z " fill="#2B3C3F" transform="translate(89,296)"/>
<path d="M0 0 C0.625 1.875 0.625 1.875 1 4 C-1 6 -1 6 -4 7 C-3.39816251 4.97954558 -2.72693904 2.97888961 -2 1 C-1.34 0.67 -0.68 0.34 0 0 Z " fill="#39494C" transform="translate(128,299)"/>
</svg>
